<mxfile host="app.diagrams.net" modified="2023-10-13T02:20:29.198Z" agent="Mozilla/5.0 (Windows NT 10.0; Win64; x64) AppleWebKit/537.36 (KHTML, like Gecko) Chrome/117.0.0.0 Safari/537.36 Edg/117.0.2045.60" etag="QYKlieLHbFqOFU-lnfTX" version="22.0.4" type="github">
  <diagram id="C5RBs43oDa-KdzZeNtuy" name="Page-1">
    <mxGraphModel dx="832" dy="473" grid="1" gridSize="10" guides="1" tooltips="1" connect="1" arrows="1" fold="1" page="1" pageScale="1" pageWidth="827" pageHeight="1169" math="0" shadow="0">
      <root>
        <mxCell id="WIyWlLk6GJQsqaUBKTNV-0" />
        <mxCell id="WIyWlLk6GJQsqaUBKTNV-1" parent="WIyWlLk6GJQsqaUBKTNV-0" />
        <mxCell id="E42aVix_6HJq_jJcUlz4-3" style="edgeStyle=orthogonalEdgeStyle;rounded=0;orthogonalLoop=1;jettySize=auto;html=1;exitX=0.5;exitY=1;exitDx=0;exitDy=0;" edge="1" parent="WIyWlLk6GJQsqaUBKTNV-1">
          <mxGeometry relative="1" as="geometry">
            <mxPoint x="375" y="130" as="targetPoint" />
            <mxPoint x="365" y="50" as="sourcePoint" />
            <Array as="points">
              <mxPoint x="365" y="110" />
              <mxPoint x="375" y="110" />
            </Array>
          </mxGeometry>
        </mxCell>
        <mxCell id="E42aVix_6HJq_jJcUlz4-2" value="INICIO" style="ellipse;whiteSpace=wrap;html=1;" vertex="1" parent="WIyWlLk6GJQsqaUBKTNV-1">
          <mxGeometry x="310" y="10" width="100" height="70" as="geometry" />
        </mxCell>
        <mxCell id="E42aVix_6HJq_jJcUlz4-4" value="Digita tu primer calificación" style="rounded=1;whiteSpace=wrap;html=1;" vertex="1" parent="WIyWlLk6GJQsqaUBKTNV-1">
          <mxGeometry x="330" y="130" width="80" height="40" as="geometry" />
        </mxCell>
        <mxCell id="E42aVix_6HJq_jJcUlz4-10" value="" style="edgeStyle=none;orthogonalLoop=1;jettySize=auto;html=1;rounded=0;exitX=0.5;exitY=1;exitDx=0;exitDy=0;entryX=0.589;entryY=-0.1;entryDx=0;entryDy=0;entryPerimeter=0;" edge="1" parent="WIyWlLk6GJQsqaUBKTNV-1" source="E42aVix_6HJq_jJcUlz4-4" target="E42aVix_6HJq_jJcUlz4-11">
          <mxGeometry width="100" relative="1" as="geometry">
            <mxPoint x="360" y="270" as="sourcePoint" />
            <mxPoint x="380" y="250" as="targetPoint" />
            <Array as="points" />
          </mxGeometry>
        </mxCell>
        <mxCell id="E42aVix_6HJq_jJcUlz4-11" value="a" style="shape=parallelogram;perimeter=parallelogramPerimeter;whiteSpace=wrap;html=1;fixedSize=1;" vertex="1" parent="WIyWlLk6GJQsqaUBKTNV-1">
          <mxGeometry x="310" y="230" width="90" height="40" as="geometry" />
        </mxCell>
        <mxCell id="E42aVix_6HJq_jJcUlz4-12" value="Digita tu segunda calificación" style="rounded=1;whiteSpace=wrap;html=1;" vertex="1" parent="WIyWlLk6GJQsqaUBKTNV-1">
          <mxGeometry x="305" y="320" width="100" height="40" as="geometry" />
        </mxCell>
        <mxCell id="E42aVix_6HJq_jJcUlz4-14" value="" style="endArrow=classic;html=1;rounded=0;exitX=0.5;exitY=1;exitDx=0;exitDy=0;entryX=0.638;entryY=0;entryDx=0;entryDy=0;entryPerimeter=0;" edge="1" parent="WIyWlLk6GJQsqaUBKTNV-1" source="E42aVix_6HJq_jJcUlz4-12" target="E42aVix_6HJq_jJcUlz4-16">
          <mxGeometry width="50" height="50" relative="1" as="geometry">
            <mxPoint x="400" y="420" as="sourcePoint" />
            <mxPoint x="380" y="450" as="targetPoint" />
          </mxGeometry>
        </mxCell>
        <mxCell id="E42aVix_6HJq_jJcUlz4-15" value="" style="endArrow=classic;html=1;rounded=0;exitX=0.5;exitY=1;exitDx=0;exitDy=0;entryX=0.5;entryY=0;entryDx=0;entryDy=0;" edge="1" parent="WIyWlLk6GJQsqaUBKTNV-1" source="E42aVix_6HJq_jJcUlz4-11" target="E42aVix_6HJq_jJcUlz4-12">
          <mxGeometry width="50" height="50" relative="1" as="geometry">
            <mxPoint x="460" y="350" as="sourcePoint" />
            <mxPoint x="380" y="340" as="targetPoint" />
          </mxGeometry>
        </mxCell>
        <mxCell id="E42aVix_6HJq_jJcUlz4-16" value="b" style="shape=parallelogram;perimeter=parallelogramPerimeter;whiteSpace=wrap;html=1;fixedSize=1;" vertex="1" parent="WIyWlLk6GJQsqaUBKTNV-1">
          <mxGeometry x="310" y="410" width="80" height="40" as="geometry" />
        </mxCell>
        <mxCell id="E42aVix_6HJq_jJcUlz4-17" value="Digita tu tercer calificación" style="rounded=1;whiteSpace=wrap;html=1;" vertex="1" parent="WIyWlLk6GJQsqaUBKTNV-1">
          <mxGeometry x="290" y="490" width="105" height="25" as="geometry" />
        </mxCell>
        <mxCell id="E42aVix_6HJq_jJcUlz4-18" value="" style="endArrow=classic;html=1;rounded=0;entryX=0.5;entryY=0;entryDx=0;entryDy=0;exitX=0.5;exitY=1;exitDx=0;exitDy=0;" edge="1" parent="WIyWlLk6GJQsqaUBKTNV-1" source="E42aVix_6HJq_jJcUlz4-16" target="E42aVix_6HJq_jJcUlz4-17">
          <mxGeometry width="50" height="50" relative="1" as="geometry">
            <mxPoint x="344.5" y="500" as="sourcePoint" />
            <mxPoint x="344.5" y="530" as="targetPoint" />
          </mxGeometry>
        </mxCell>
        <mxCell id="E42aVix_6HJq_jJcUlz4-22" value="" style="endArrow=classic;html=1;rounded=0;exitX=0.5;exitY=1;exitDx=0;exitDy=0;entryX=0.5;entryY=0;entryDx=0;entryDy=0;" edge="1" parent="WIyWlLk6GJQsqaUBKTNV-1" source="E42aVix_6HJq_jJcUlz4-17" target="E42aVix_6HJq_jJcUlz4-25">
          <mxGeometry width="50" height="50" relative="1" as="geometry">
            <mxPoint x="400" y="610" as="sourcePoint" />
            <mxPoint x="340" y="580" as="targetPoint" />
          </mxGeometry>
        </mxCell>
        <mxCell id="E42aVix_6HJq_jJcUlz4-25" value="c" style="shape=parallelogram;perimeter=parallelogramPerimeter;whiteSpace=wrap;html=1;fixedSize=1;" vertex="1" parent="WIyWlLk6GJQsqaUBKTNV-1">
          <mxGeometry x="295" y="540" width="90" height="30" as="geometry" />
        </mxCell>
        <mxCell id="E42aVix_6HJq_jJcUlz4-26" value="Digita tu cuarta calificación" style="rounded=1;whiteSpace=wrap;html=1;" vertex="1" parent="WIyWlLk6GJQsqaUBKTNV-1">
          <mxGeometry x="280" y="600" width="105" height="25" as="geometry" />
        </mxCell>
        <mxCell id="E42aVix_6HJq_jJcUlz4-27" value="" style="endArrow=classic;html=1;rounded=0;exitX=0.417;exitY=0.95;exitDx=0;exitDy=0;exitPerimeter=0;entryX=0.5;entryY=0;entryDx=0;entryDy=0;" edge="1" parent="WIyWlLk6GJQsqaUBKTNV-1" source="E42aVix_6HJq_jJcUlz4-25" target="E42aVix_6HJq_jJcUlz4-26">
          <mxGeometry width="50" height="50" relative="1" as="geometry">
            <mxPoint x="440" y="650" as="sourcePoint" />
            <mxPoint x="440" y="590" as="targetPoint" />
            <Array as="points">
              <mxPoint x="340" y="580" />
            </Array>
          </mxGeometry>
        </mxCell>
        <mxCell id="E42aVix_6HJq_jJcUlz4-29" value="" style="endArrow=classic;html=1;rounded=0;entryX=0.5;entryY=0;entryDx=0;entryDy=0;exitX=0.5;exitY=1;exitDx=0;exitDy=0;" edge="1" parent="WIyWlLk6GJQsqaUBKTNV-1" source="E42aVix_6HJq_jJcUlz4-26" target="E42aVix_6HJq_jJcUlz4-32">
          <mxGeometry width="50" height="50" relative="1" as="geometry">
            <mxPoint x="330" y="665" as="sourcePoint" />
            <mxPoint x="332.5" y="690" as="targetPoint" />
          </mxGeometry>
        </mxCell>
        <mxCell id="E42aVix_6HJq_jJcUlz4-31" value="" style="endArrow=classic;html=1;rounded=0;exitX=0.5;exitY=1;exitDx=0;exitDy=0;entryX=0.5;entryY=0;entryDx=0;entryDy=0;" edge="1" parent="WIyWlLk6GJQsqaUBKTNV-1" source="E42aVix_6HJq_jJcUlz4-32" target="E42aVix_6HJq_jJcUlz4-33">
          <mxGeometry width="50" height="50" relative="1" as="geometry">
            <mxPoint x="332.5" y="720" as="sourcePoint" />
            <mxPoint x="333" y="750" as="targetPoint" />
          </mxGeometry>
        </mxCell>
        <mxCell id="E42aVix_6HJq_jJcUlz4-32" value="d" style="shape=parallelogram;perimeter=parallelogramPerimeter;whiteSpace=wrap;html=1;fixedSize=1;" vertex="1" parent="WIyWlLk6GJQsqaUBKTNV-1">
          <mxGeometry x="282.5" y="650" width="100" height="30" as="geometry" />
        </mxCell>
        <mxCell id="E42aVix_6HJq_jJcUlz4-33" value="digita tu quinta calificación" style="rounded=1;whiteSpace=wrap;html=1;" vertex="1" parent="WIyWlLk6GJQsqaUBKTNV-1">
          <mxGeometry x="290" y="710" width="80" height="40" as="geometry" />
        </mxCell>
        <mxCell id="E42aVix_6HJq_jJcUlz4-34" value="" style="endArrow=classic;html=1;rounded=0;exitX=0.5;exitY=1;exitDx=0;exitDy=0;" edge="1" parent="WIyWlLk6GJQsqaUBKTNV-1" source="E42aVix_6HJq_jJcUlz4-33">
          <mxGeometry width="50" height="50" relative="1" as="geometry">
            <mxPoint x="400" y="660" as="sourcePoint" />
            <mxPoint x="333" y="820" as="targetPoint" />
          </mxGeometry>
        </mxCell>
        <mxCell id="E42aVix_6HJq_jJcUlz4-35" value="e" style="shape=parallelogram;perimeter=parallelogramPerimeter;whiteSpace=wrap;html=1;fixedSize=1;" vertex="1" parent="WIyWlLk6GJQsqaUBKTNV-1">
          <mxGeometry x="290" y="790" width="80" height="20" as="geometry" />
        </mxCell>
        <mxCell id="E42aVix_6HJq_jJcUlz4-36" value="" style="endArrow=classic;html=1;rounded=0;exitX=0.5;exitY=1;exitDx=0;exitDy=0;" edge="1" parent="WIyWlLk6GJQsqaUBKTNV-1" source="E42aVix_6HJq_jJcUlz4-35">
          <mxGeometry width="50" height="50" relative="1" as="geometry">
            <mxPoint x="400" y="1030" as="sourcePoint" />
            <mxPoint x="333" y="880" as="targetPoint" />
          </mxGeometry>
        </mxCell>
        <mxCell id="E42aVix_6HJq_jJcUlz4-39" value="" style="edgeStyle=orthogonalEdgeStyle;rounded=0;orthogonalLoop=1;jettySize=auto;html=1;" edge="1" parent="WIyWlLk6GJQsqaUBKTNV-1" source="E42aVix_6HJq_jJcUlz4-37" target="E42aVix_6HJq_jJcUlz4-38">
          <mxGeometry relative="1" as="geometry" />
        </mxCell>
        <mxCell id="E42aVix_6HJq_jJcUlz4-37" value="promedio=(a+b+c+d+e)/5" style="shape=parallelogram;perimeter=parallelogramPerimeter;whiteSpace=wrap;html=1;fixedSize=1;" vertex="1" parent="WIyWlLk6GJQsqaUBKTNV-1">
          <mxGeometry x="280" y="840" width="115" height="50" as="geometry" />
        </mxCell>
        <mxCell id="E42aVix_6HJq_jJcUlz4-38" value="promedio&lt;br&gt;&amp;gt;=7" style="rhombus;whiteSpace=wrap;html=1;" vertex="1" parent="WIyWlLk6GJQsqaUBKTNV-1">
          <mxGeometry x="302.5" y="920" width="87.5" height="80" as="geometry" />
        </mxCell>
        <mxCell id="E42aVix_6HJq_jJcUlz4-40" value="" style="endArrow=classic;html=1;rounded=0;exitX=0.5;exitY=1;exitDx=0;exitDy=0;entryX=0.44;entryY=-0.067;entryDx=0;entryDy=0;entryPerimeter=0;" edge="1" parent="WIyWlLk6GJQsqaUBKTNV-1" source="E42aVix_6HJq_jJcUlz4-38" target="E42aVix_6HJq_jJcUlz4-42">
          <mxGeometry width="50" height="50" relative="1" as="geometry">
            <mxPoint x="400" y="1110" as="sourcePoint" />
            <mxPoint x="343" y="1100" as="targetPoint" />
          </mxGeometry>
        </mxCell>
        <mxCell id="E42aVix_6HJq_jJcUlz4-41" value="" style="endArrow=classic;html=1;rounded=0;exitX=1;exitY=0.5;exitDx=0;exitDy=0;entryX=0;entryY=0.5;entryDx=0;entryDy=0;" edge="1" parent="WIyWlLk6GJQsqaUBKTNV-1" source="E42aVix_6HJq_jJcUlz4-38" target="E42aVix_6HJq_jJcUlz4-45">
          <mxGeometry width="50" height="50" relative="1" as="geometry">
            <mxPoint x="400" y="1110" as="sourcePoint" />
            <mxPoint x="480" y="1040" as="targetPoint" />
            <Array as="points" />
          </mxGeometry>
        </mxCell>
        <mxCell id="E42aVix_6HJq_jJcUlz4-42" value="estas aprobado" style="rounded=1;whiteSpace=wrap;html=1;" vertex="1" parent="WIyWlLk6GJQsqaUBKTNV-1">
          <mxGeometry x="300" y="1030" width="100" height="20" as="geometry" />
        </mxCell>
        <mxCell id="E42aVix_6HJq_jJcUlz4-43" value="sí" style="text;html=1;align=center;verticalAlign=middle;resizable=0;points=[];autosize=1;strokeColor=none;fillColor=none;" vertex="1" parent="WIyWlLk6GJQsqaUBKTNV-1">
          <mxGeometry x="190" y="1000" width="30" height="30" as="geometry" />
        </mxCell>
        <mxCell id="E42aVix_6HJq_jJcUlz4-44" value="no" style="text;html=1;align=center;verticalAlign=middle;resizable=0;points=[];autosize=1;strokeColor=none;fillColor=none;" vertex="1" parent="WIyWlLk6GJQsqaUBKTNV-1">
          <mxGeometry x="405" y="930" width="40" height="30" as="geometry" />
        </mxCell>
        <mxCell id="E42aVix_6HJq_jJcUlz4-45" value="estas reprobado" style="rounded=1;whiteSpace=wrap;html=1;" vertex="1" parent="WIyWlLk6GJQsqaUBKTNV-1">
          <mxGeometry x="470" y="930" width="90" height="30" as="geometry" />
        </mxCell>
        <mxCell id="E42aVix_6HJq_jJcUlz4-46" value="" style="endArrow=classic;html=1;rounded=0;exitX=0.5;exitY=1;exitDx=0;exitDy=0;entryX=0.5;entryY=0;entryDx=0;entryDy=0;" edge="1" parent="WIyWlLk6GJQsqaUBKTNV-1" source="E42aVix_6HJq_jJcUlz4-42" target="E42aVix_6HJq_jJcUlz4-50">
          <mxGeometry width="50" height="50" relative="1" as="geometry">
            <mxPoint x="400" y="1110" as="sourcePoint" />
            <mxPoint x="490" y="1060" as="targetPoint" />
            <Array as="points">
              <mxPoint x="350" y="1080" />
            </Array>
          </mxGeometry>
        </mxCell>
        <mxCell id="E42aVix_6HJq_jJcUlz4-50" value="fin" style="rounded=1;whiteSpace=wrap;html=1;" vertex="1" parent="WIyWlLk6GJQsqaUBKTNV-1">
          <mxGeometry x="300" y="1100" width="120" height="60" as="geometry" />
        </mxCell>
      </root>
    </mxGraphModel>
  </diagram>
</mxfile>
